#!OML:ASF E:\Style4\Style4.ASF
:FULLY-SPECIFIED
:DEGREES
2907
root 0.164743 17.5017 -0.136831 -1.91436 5.01998 3.64909
lowerback 4.9914 3.8598 0.887691
upperback -0.694616 5.20082 -0.0388825
thorax -3.42437 2.56942 -0.940652
lowerneck -2.04204 -1.68026 -4.13407
upperneck -8.79159 -1.892 4.96738
head -2.35693 -0.923737 2.34735
rclavicle 2.18663e-015 -3.97569e-015
rhumerus 41.1362 27.3281 -53.9849
rradius 121.226
rwrist 6.00458
rhand -43.0687 44.2452
rfingers 7.12502
rthumb -15.9245 14.8799
lclavicle 2.18663e-015 -3.97569e-015
lhumerus 41.0566 -23.9579 52.2818
lradius 128.226
lwrist -6.256
lhand -30.7935 20.6344
lfingers 7.12502
lthumb -4.08371 50.575
rfemur -8.68156 -4.11297 14.2006
rtibia 37.3722
rfoot -24.502 -17.9789
rtoes -10.5094
lfemur -8.3848 -2.78311 -23.935
ltibia 34.0609
lfoot -22.516 7.55231
ltoes -15.458
2908
root 0.160482 17.4831 -0.130899 -2.01927 5.17953 3.68266
lowerback 5.0013 3.86509 0.869451
upperback -0.653698 5.2071 -0.0197807
thorax -3.3909 2.57354 -0.910405
lowerneck -1.89312 -1.63911 -4.08153
upperneck -8.80258 -1.84508 4.9149
head -2.39017 -0.902497 2.32259
rclavicle 3.67255e-014 -2.38542e-014
rhumerus 41.0137 27.5662 -54.0019
rradius 121.231
rwrist 5.98975
rhand -43.129 44.5163
rfingers 7.12502
rthumb -15.9826 15.1556
lclavicle 3.67255e-014 -2.38542e-014
lhumerus 40.8591 -24.0798 52.4063
lradius 128.27
lwrist -6.26168
lhand -30.851 20.46
lfingers 7.12502
lthumb -4.13926 50.3995
rfemur -8.70289 -4.32879 14.1456
rtibia 37.7594
rfoot -24.7686 -17.9768
rtoes -10.6206
lfemur -8.52008 -2.87081 -23.9648
ltibia 34.519
lfoot -22.6936 7.49382
ltoes -15.1881
2909
root 0.157413 17.4642 -0.126572 -2.13644 5.33166 3.68376
lowerback 5.04097 3.88026 0.902021
upperback -0.616438 5.23038 0.010424
thorax -3.37416 2.58501 -0.900504
lowerneck -1.73461 -1.62992 -4.05511
upperneck -8.83916 -1.84155 4.84921
head -2.43145 -0.901725 2.29922
rclavicle -5.24792e-014 -3.97569e-015
rhumerus 40.8696 27.7683 -54.0883
rradius 121.174
rwrist 5.89542
rhand -42.7798 44.9568
rfingers 7.12502
rthumb -15.6463 15.5695
lclavicle -5.24792e-014 -3.97569e-015
lhumerus 40.7107 -24.2726 52.5633
lradius 128.289
lwrist -6.20043
lhand -31.0196 20.3475
lfingers 7.12502
lthumb -4.30202 50.2838
rfemur -8.7379 -4.45712 14.1241
rtibia 38.1062
rfoot -25.1063 -18.1484
rtoes -11.0267
lfemur -8.64623 -2.88957 -23.9618
ltibia 34.9969
lfoot -22.814 7.47524
ltoes -15.5208
2910
root 0.154403 17.444 -0.121878 -2.21393 5.43428 3.62515
lowerback 5.07954 3.90894 1.01441
upperback -0.623127 5.27646 0.0217087
thorax -3.39284 2.60564 -0.957557
lowerneck -1.58399 -1.62322 -4.08799
upperneck -8.79891 -1.83197 4.95381
head -2.44534 -0.900288 2.34196
rclavicle 1.89839e-014 7.95139e-015
rhumerus 40.6374 28.0465 -54.2657
rradius 121.108
rwrist 5.97359
rhand -42.6321 44.851
rfingers 7.12502
rthumb -15.504 15.4526
lclavicle 1.89839e-014 7.95139e-015
lhumerus 40.5553 -24.5154 52.6695
lradius 128.314
lwrist -6.19198
lhand -31.0005 20.5651
lfingers 7.12502
lthumb -4.28363 50.5017
rfemur -8.81344 -4.58034 14.177
rtibia 38.4399
rfoot -25.3582 -18.2013
rtoes -11.2123
lfemur -8.80891 -2.90613 -23.8949
ltibia 35.477
lfoot -22.9909 7.44913
ltoes -16.0335
2911
root 0.149557 17.4256 -0.116535 -2.32349 5.55565 3.56289
lowerback 5.15263 3.90971 1.08453
upperback -0.626048 5.28385 0.0526806
thorax -3.43338 2.60769 -0.970846
lowerneck -1.37403 -1.58045 -4.09536
upperneck -8.79718 -1.77589 5.04251
head -2.48546 -0.876909 2.37606
rclavicle -2.34069e-014 -1.51076e-014
rhumerus 40.4443 28.3683 -54.4853
rradius 121.044
rwrist 6.04318
rhand -42.5732 44.569
rfingers 7.12502
rthumb -15.4473 15.1662
lclavicle -2.34069e-014 -1.51076e-014
lhumerus 40.308 -24.7169 52.8096
lradius 128.335
lwrist -6.29201
lhand -30.8283 20.9064
lfingers 7.12502
lthumb -4.11734 50.8464
rfemur -8.8562 -4.73923 14.2514
rtibia 38.7934
rfoot -25.3965 -18.3359
rtoes -11.7252
lfemur -8.93553 -2.97608 -23.8201
ltibia 35.9452
lfoot -23.2225 7.37897
ltoes -16.1487
2912
root 0.145088 17.409 -0.110311 -2.41025 5.71323 3.66239
lowerback 5.2075 3.89779 0.972203
upperback -0.623309 5.26163 0.0576697
thorax -3.47235 2.59836 -0.906388
lowerneck -1.19396 -1.52764 -4.09061
upperneck -8.76811 -1.71053 5.06783
head -2.51184 -0.847422 2.38547
rclavicle -9.39258e-015 6.36111e-015
rhumerus 40.3274 28.6733 -54.5805
rradius 121.022
rwrist 5.97284
rhand -42.4853 44.444
rfingers 7.12502
rthumb -15.3626 15.0348
lclavicle -9.39258e-015 6.36111e-015
lhumerus 40.0152 -24.8853 52.9797
lradius 128.382
lwrist -6.32563
lhand -30.6801 21.0376
lfingers 7.12502
lthumb -3.97426 50.9802
rfemur -8.90855 -4.91445 14.1243
rtibia 39.1954
rfoot -25.611 -18.3137
rtoes -11.7199
lfemur -9.04377 -3.07623 -23.9324
ltibia 36.3772
lfoot -23.3983 7.35516
ltoes -16.3673
2913
root 0.141789 17.39 -0.104586 -2.4811 5.87956 3.73106
lowerback 5.20797 3.88201 0.9203
upperback -0.603555 5.23736 0.0656999
thorax -3.45801 2.58758 -0.866853
lowerneck -1.11785 -1.46546 -4.1473
upperneck -8.63042 -1.63184 5.11508
head -2.48362 -0.808759 2.40931
rclavicle 2.52953e-014 9.54166e-015
rhumerus 40.2334 29.0115 -54.6179
rradius 120.993
rwrist 5.84995
rhand -42.1802 44.5478
rfingers 7.12502
rthumb -15.0688 15.1163
lclavicle 2.52953e-014 9.54166e-015
lhumerus 39.7783 -25.0153 53.1531
lradius 128.42
lwrist -6.26006
lhand -30.6287 20.8778
lfingers 7.12502
lthumb -3.92463 50.8214
rfemur -8.9742 -5.13243 14.0203
rtibia 39.6136
rfoot -25.9171 -18.2059
rtoes -11.3956
lfemur -9.16882 -3.23491 -24.0203
ltibia 36.7937
lfoot -23.5286 7.39372
ltoes -16.6775
2914
root 0.137231 17.3698 -0.099014 -2.56733 6.00069 3.76619
lowerback 5.2146 3.90783 0.923422
upperback -0.573777 5.2715 0.0582549
thorax -3.42934 2.60483 -0.877929
lowerneck -1.00658 -1.43315 -4.12317
upperneck -8.53957 -1.59487 5.11722
head -2.47551 -0.792579 2.40526
rclavicle -6.39093e-014 -1.74931e-014
rhumerus 40.0478 29.2823 -54.728
rradius 120.938
rwrist 5.65621
rhand -41.7476 44.727
rfingers 7.12502
rthumb -14.652 15.2647
lclavicle -6.39093e-014 -1.74931e-014
lhumerus 39.6101 -25.2479 53.3038
lradius 128.42
lwrist -6.36
lhand -30.6434 20.7127
lfingers 7.12502
lthumb -3.93879 50.6561
rfemur -9.04201 -5.2761 13.9777
rtibia 40.0339
rfoot -26.1016 -18.2067
rtoes -11.4846
lfemur -9.29681 -3.31889 -24.0571
ltibia 37.2297
lfoot -23.7373 7.38254
ltoes -16.8507
2915
root 0.133224 17.3495 -0.0921564 -2.66254 6.11292 3.70853
lowerback 5.23241 3.94296 1.02518
upperback -0.555367 5.32543 0.076054
thorax -3.41179 2.63012 -0.920368
lowerneck -0.808144 -1.45092 -4.07056
upperneck -8.5667 -1.62806 5.05726
head -2.51917 -0.811551 2.37984
rclavicle 7.29043e-014 6.36111e-015
rhumerus 39.8206 29.5041 -54.8659
rradius 120.888
rwrist 5.53231
rhand -41.6099 44.5285
rfingers 7.12502
rthumb -14.5193 15.0565
lclavicle 7.29043e-014 6.36111e-015
lhumerus 39.4519 -25.4992 53.4944
lradius 128.437
lwrist -6.43865
lhand -30.4333 20.8039
lfingers 7.12502
lthumb -3.73594 50.7509
rfemur -9.10594 -5.33163 14.0496
rtibia 40.4466
rfoot -26.3183 -18.1966
rtoes -11.5347
lfemur -9.43166 -3.3936 -23.9854
ltibia 37.7106
lfoot -24.0172 7.26193
ltoes -16.5486
